<svg class="test" xmlns="http://www.w3.org/2000/svg" width="42.088" height="42.088" viewBox="0 0 42.088 42.088">
  <path class="test" id="Icon_ionic-logo-github" data-name="Icon ionic-logo-github" d="M23.294,2.25C11.673,2.25,2.25,11.917,2.25,23.829A21.538,21.538,0,0,0,16.643,44.3a1.65,1.65,0,0,0,.357.038,1.018,1.018,0,0,0,1.08-1.071c0-.517-.019-1.87-.028-3.673a9.62,9.62,0,0,1-2.123.254,4.889,4.889,0,0,1-4.97-3.147A5.7,5.7,0,0,0,8.62,33.543c-1.832-1.287-.009-1.325.132-1.325H8.76a4.524,4.524,0,0,1,3.222,2.236,4.131,4.131,0,0,0,3.72,2.358,5.914,5.914,0,0,0,2.405-.564,4.662,4.662,0,0,1,1.334-2.884C14.773,32.82,9.86,30.969,9.86,22.7a8.446,8.446,0,0,1,2.161-5.787,7.944,7.944,0,0,1,.207-5.712,1.751,1.751,0,0,1,.47-.047c.761,0,2.48.291,5.317,2.264a19.561,19.561,0,0,1,10.541,0c2.837-1.973,4.556-2.264,5.317-2.264a1.751,1.751,0,0,1,.47.047,7.944,7.944,0,0,1,.207,5.712A8.481,8.481,0,0,1,36.709,22.7c0,8.286-4.923,10.109-9.611,10.644a5.232,5.232,0,0,1,1.428,3.993c0,2.884-.028,5.214-.028,5.919a1.013,1.013,0,0,0,1.071,1.08,1.818,1.818,0,0,0,.376-.038A21.535,21.535,0,0,0,44.338,23.829C44.338,11.917,34.915,2.25,23.294,2.25Z" transform="translate(-2.25 -2.25)" fill="#f05d7b"/>
</svg>
