<svg xmlns="http://www.w3.org/2000/svg" width="36.839" height="35.918" viewBox="0 0 36.839 35.918">
  <path id="Icon_awesome-github" data-name="Icon awesome-github" d="M12.322,29.484c0,.149-.171.267-.386.267-.245.022-.416-.1-.416-.267,0-.149.171-.267.386-.267C12.129,29.194,12.322,29.313,12.322,29.484Zm-2.31-.334c-.052.149.1.319.319.364a.348.348,0,0,0,.46-.149c.045-.149-.1-.319-.319-.386A.381.381,0,0,0,10.012,29.15Zm3.283-.126c-.215.052-.364.193-.342.364.022.149.215.245.438.193s.364-.193.342-.342S13.51,29,13.295,29.023ZM18.182.563A17.81,17.81,0,0,0,0,18.685,18.621,18.621,0,0,0,12.589,36.451c.951.171,1.285-.416,1.285-.9,0-.46-.022-3-.022-4.56,0,0-5.2,1.114-6.291-2.213,0,0-.847-2.161-2.065-2.718,0,0-1.7-1.166.119-1.144a3.92,3.92,0,0,1,2.867,1.916A3.926,3.926,0,0,0,13.9,28.385a4.128,4.128,0,0,1,1.188-2.5c-4.152-.46-8.341-1.062-8.341-8.207A5.629,5.629,0,0,1,8.5,13.3,7.017,7.017,0,0,1,8.69,8.257c1.552-.483,5.125,2.005,5.125,2.005a17.546,17.546,0,0,1,9.329,0s3.572-2.5,5.125-2.005a7.014,7.014,0,0,1,.193,5.043,5.773,5.773,0,0,1,1.916,4.375c0,7.167-4.375,7.739-8.526,8.207a4.392,4.392,0,0,1,1.263,3.446c0,2.5-.022,5.6-.022,6.209,0,.483.342,1.07,1.285.9A18.449,18.449,0,0,0,36.839,18.685C36.839,8.383,28.483.563,18.182.563ZM7.219,26.179c-.1.074-.074.245.052.386.119.119.29.171.386.074.1-.074.074-.245-.052-.386C7.487,26.134,7.316,26.082,7.219,26.179Zm-.8-.6c-.052.1.022.215.171.29a.221.221,0,0,0,.319-.052c.052-.1-.022-.215-.171-.29C6.588,25.481,6.469,25.5,6.417,25.577Zm2.406,2.644c-.119.1-.074.319.1.46.171.171.386.193.483.074.1-.1.052-.319-.1-.46C9.143,28.125,8.92,28.1,8.823,28.221Zm-.847-1.092c-.119.074-.119.267,0,.438s.319.245.416.171a.339.339,0,0,0,0-.46C8.289,27.107,8.1,27.033,7.977,27.129Z" transform="translate(0 -0.563)"/>
</svg>
