<svg xmlns="http://www.w3.org/2000/svg" xmlns:xlink="http://www.w3.org/1999/xlink" width="35.866" height="35.866" viewBox="0 0 35.866 35.866">
  <defs>
    <linearGradient id="linear-gradient" x1="0.819" x2="0.216" y2="1" gradientUnits="objectBoundingBox">
      <stop offset="0" stop-color="#023291"/>
      <stop offset="1" stop-color="#01060e"/>
    </linearGradient>
  </defs>
  <path class="github-2-svg" id="Icon_ionic-logo-github" data-name="Icon ionic-logo-github" d="M20.183,2.25A18.169,18.169,0,0,0,2.25,20.639,18.354,18.354,0,0,0,14.515,38.084a1.406,1.406,0,0,0,.3.032.868.868,0,0,0,.921-.913c0-.44-.016-1.593-.024-3.13a8.2,8.2,0,0,1-1.809.216,4.166,4.166,0,0,1-4.235-2.682,4.856,4.856,0,0,0-1.993-2.69c-1.561-1.1-.008-1.129.112-1.129H7.8a3.855,3.855,0,0,1,2.746,1.905,3.521,3.521,0,0,0,3.17,2.009,5.04,5.04,0,0,0,2.049-.48A3.973,3.973,0,0,1,16.9,28.765c-3.979-.464-8.166-2.041-8.166-9.087a7.2,7.2,0,0,1,1.841-4.932,6.769,6.769,0,0,1,.176-4.868,1.492,1.492,0,0,1,.4-.04c.648,0,2.114.248,4.531,1.929a16.669,16.669,0,0,1,8.982,0c2.418-1.681,3.883-1.929,4.531-1.929a1.492,1.492,0,0,1,.4.04,6.769,6.769,0,0,1,.176,4.868,7.227,7.227,0,0,1,1.841,4.932c0,7.061-4.2,8.614-8.19,9.071a4.459,4.459,0,0,1,1.217,3.4c0,2.458-.024,4.443-.024,5.044a.863.863,0,0,0,.913.921,1.55,1.55,0,0,0,.32-.032A18.351,18.351,0,0,0,38.116,20.639,18.169,18.169,0,0,0,20.183,2.25Z" transform="translate(-2.25 -2.25)" fill="url(#linear-gradient)"/>
</svg>
