<svg xmlns="http://www.w3.org/2000/svg" width="36.149" height="36.148" viewBox="0 0 36.149 36.148">
  <path id="Icon_awesome-linkedin-in" data-name="Icon awesome-linkedin-in" d="M8.092,36.149H.6V12.015H8.092ZM4.34,8.723a4.361,4.361,0,1,1,4.34-4.381A4.377,4.377,0,0,1,4.34,8.723Zm31.8,27.427H28.663V24.4c0-2.8-.056-6.391-3.9-6.391-3.9,0-4.494,3.042-4.494,6.189v11.95H12.786V12.015h7.188v3.292h.1a7.875,7.875,0,0,1,7.091-3.9c7.585,0,8.979,4.995,8.979,11.482V36.149Z" transform="translate(0 -0.001)" fill="#003ad8"/>
</svg>
