<svg class="link-svg" xmlns="http://www.w3.org/2000/svg" xmlns:xlink="http://www.w3.org/1999/xlink" width="31.827" height="31.827" viewBox="0 0 31.827 31.827">
  <defs>
    <linearGradient id="linear-gradient" x1="0.843" y1="0.092" x2="0.176" y2="0.883" gradientUnits="objectBoundingBox">
      <stop offset="0" stop-color="#f05d7b"/>
      <stop offset="1" stop-color="#ff96ac"/>
    </linearGradient>
  </defs>
  <path class="link-svg" id="Icon_awesome-link" data-name="Icon awesome-link" d="M20.3,11.524a9.444,9.444,0,0,1,.022,13.339l-.022.023-4.177,4.177A9.449,9.449,0,0,1,2.763,15.7L5.07,13.395a.994.994,0,0,1,1.7.659,11.454,11.454,0,0,0,.6,3.277,1,1,0,0,1-.235,1.033l-.814.814a4.476,4.476,0,1,0,6.289,6.37l4.177-4.177a4.475,4.475,0,0,0,0-6.33,4.657,4.657,0,0,0-.643-.533,1,1,0,0,1-.432-.784,2.476,2.476,0,0,1,.727-1.853l1.309-1.309a1,1,0,0,1,1.28-.108A9.479,9.479,0,0,1,20.3,11.524Zm8.761-8.761a9.459,9.459,0,0,0-13.362,0L11.524,6.94l-.022.023a9.45,9.45,0,0,0,1.3,14.408,1,1,0,0,0,1.28-.108l1.309-1.309a2.476,2.476,0,0,0,.727-1.853,1,1,0,0,0-.432-.784,4.657,4.657,0,0,1-.643-.533,4.475,4.475,0,0,1,0-6.33l4.177-4.177a4.476,4.476,0,1,1,6.289,6.37l-.814.814a1,1,0,0,0-.235,1.033,11.454,11.454,0,0,1,.6,3.277.994.994,0,0,0,1.7.659l2.307-2.307a9.458,9.458,0,0,0,0-13.362Z" transform="translate(0 0)" fill="url(#linear-gradient)"/>
</svg>
